<svg width="518" height="424" viewBox="0 0 518 424" fill="none" xmlns="http://www.w3.org/2000/svg">
<g filter="url(#filter0_d_11_45)">
<path d="M385.172 294.036L345.45 270.718L314.249 317.15C332.477 332.362 363.1 343.425 378.924 340.047C411.398 333.114 477.021 240.911 486.127 233.891C517.125 209.994 527.201 200.925 488.413 219.494C451.432 237.198 471.019 219.494 461.959 219.494C451.074 220.254 454.681 229.915 458.721 236.837L385.172 294.036Z" fill="url(#paint0_linear_11_45)"/>
<path d="M159.79 258.711C170.997 250.929 215.279 236.911 234.727 230.874L255.302 233.119C268.266 236.333 296.073 241.812 308.863 246.998C321.654 252.183 344.866 268.72 366.521 282.51L361.408 300.218C356.816 316.121 344.673 328.733 328.955 333.924C324.91 359.646 321.422 401.463 321.998 414.427L171.512 414.31L164.623 350.662L133.634 353.982L107.457 333.924C140.234 277.23 145.782 268.439 159.79 258.711Z" fill="url(#paint1_linear_11_45)"/>
<path d="M116.739 404.965C69.0583 398.92 100.069 350.595 108.523 334.636C118.748 343.243 131.374 348.494 144.687 349.677L161.118 351.136L154.39 366.658L227.029 383.664L237.22 411.935C229.961 410.699 176.032 412.484 116.739 404.965Z" fill="url(#paint2_linear_11_45)"/>
<path d="M239.798 104C242.145 99.7566 248.875 93.8154 257.022 104H239.798Z" fill="#30235B"/>
<ellipse cx="243.71" cy="249.383" rx="25.9725" ry="18.5082" fill="#CF0606"/>
<path d="M222.429 248.388L226.059 212.239H261.404L265.464 248.388C264.045 252.645 257.345 261.281 244.939 261.281C229.126 261.281 223.442 252.645 222.429 248.388Z" fill="url(#paint3_linear_11_45)"/>
<mask id="mask0_11_45" style="mask-type:alpha" maskUnits="userSpaceOnUse" x="222" y="212" width="44" height="50">
<path d="M222.429 248.388L226.059 212.239H261.404L265.472 248.461C264.053 252.718 257.33 261.282 244.923 261.282C229.111 261.282 223.442 252.645 222.429 248.388Z" fill="url(#paint4_linear_11_45)"/>
</mask>
<g mask="url(#mask0_11_45)">
<path opacity="0.1" d="M274.142 213.623C242.183 253.165 224.324 221.371 215.099 216.602L221.438 189.87L259.28 185.351L274.142 213.623Z" fill="black"/>
</g>
<path d="M243.097 226.751C204.98 226.751 198.425 172.036 210.202 147.01C236.7 114.623 269.824 133.515 283.073 147.01C286.263 167.865 289.78 226.751 243.097 226.751Z" fill="url(#paint5_linear_11_45)"/>
<path d="M283.724 184.893L276.256 179.392L277.411 175.296L285.941 180.921L283.724 184.893Z" fill="#111111"/>
<path d="M205.919 183.298L213.387 177.796L212.232 173.701L203.702 179.325L205.919 183.298Z" fill="#111111"/>
<path d="M212.753 150.298C239.777 167.905 269.735 157.634 281.336 150.298C278.893 158.002 282.354 172.811 284.389 179.252C301.973 156.354 296.224 143.989 291.152 140.668C290.307 129.256 279.932 100.722 245.103 102.074C210.274 103.427 203.515 128.129 204.502 137.287C191.314 155.209 199.16 172.731 205.521 179.252C212.753 165.212 212.588 155.363 212.753 150.298Z" fill="#30235B"/>
<g filter="url(#filter1_d_11_45)">
<path d="M247.871 119.695C207.528 118.344 198.542 144.876 197.336 160.282C197.239 161.516 196.23 162.487 194.993 162.487C193.672 162.487 192.62 161.386 192.738 160.071C194.498 140.317 205.03 105.799 247.871 108.179C291.127 110.582 299.589 145.017 298.262 164.213C298.191 165.24 297.323 166.016 296.293 166.016C295.17 166.016 294.269 165.105 294.224 163.983C293.588 148.056 283 120.713 247.871 119.695Z" fill="white"/>
</g>
<g filter="url(#filter2_d_11_45)">
<rect x="299.069" y="172.316" width="5.4757" height="21.0131" rx="2.73785" transform="rotate(10.0542 299.069 172.316)" fill="#24C28A"/>
</g>
<g filter="url(#filter3_d_11_45)">
<rect x="287.305" y="158.693" width="16.8668" height="43.7733" rx="8.43338" transform="rotate(10.0542 287.305 158.693)" fill="white"/>
</g>
<g filter="url(#filter4_d_11_45)">
<rect width="5.4757" height="21.0131" rx="2.73785" transform="matrix(-0.984643 0.17458 0.17458 0.984643 190.159 172.316)" fill="#24C28A"/>
</g>
<g filter="url(#filter5_d_11_45)">
<rect width="16.8668" height="43.7733" rx="8.43338" transform="matrix(-0.984643 0.17458 0.17458 0.984643 201.77 158.693)" fill="white"/>
</g>
<mask id="mask1_11_45" style="mask-type:alpha" maskUnits="userSpaceOnUse" x="186" y="160" width="23" height="44">
<rect width="16.8668" height="43.7733" rx="8.43338" transform="matrix(-0.984643 0.17458 0.17458 0.984643 201.77 158.693)" fill="white"/>
</mask>
<g mask="url(#mask1_11_45)">
<rect x="193.828" y="158.693" width="21.9399" height="47.5168" transform="rotate(-10.0977 193.828 158.693)" fill="#E8E8E8"/>
</g>
<mask id="mask2_11_45" style="mask-type:alpha" maskUnits="userSpaceOnUse" x="281" y="160" width="22" height="44">
<rect x="287.305" y="158.693" width="16.8668" height="43.7733" rx="8.43338" transform="rotate(10.0542 287.305 158.693)" fill="white"/>
</mask>
<g mask="url(#mask2_11_45)">
<rect width="21.9399" height="47.5168" transform="matrix(-0.98451 -0.175326 -0.175326 0.98451 296.271 158.693)" fill="#E8E8E8"/>
</g>
<path opacity="0.5" d="M226.672 191.284C221.28 191.284 218.564 187.034 217.874 185.137C217.08 183.55 216.454 179.415 218.333 176.13C220.722 171.954 231.951 170.789 235.885 176.689C239.818 182.589 235.885 191.284 226.672 191.284Z" fill="#E6FCFF"/>
<path opacity="0.5" d="M262.403 191.284C267.796 191.284 270.511 187.034 271.201 185.137C271.995 183.55 272.622 179.415 270.743 176.13C268.354 171.954 257.124 170.789 253.191 176.689C249.257 182.589 253.191 191.284 262.403 191.284Z" fill="#E6FCFF"/>
<path fill-rule="evenodd" clip-rule="evenodd" d="M238.67 175.387C229.876 167.664 221.932 170.932 217.225 172.868C216.702 173.083 216.218 173.282 215.778 173.448L212.831 173.453C212.276 173.454 211.828 173.907 211.833 174.462L211.855 176.94C211.86 177.489 212.306 177.931 212.855 177.931L214.986 177.931C213.442 191.182 223.214 194.728 231.029 192.339C237.997 190.21 239.862 184.185 240.235 180.405C241.725 177.102 248.26 178.628 248.518 180.331C248.524 180.371 248.531 180.416 248.538 180.465L248.538 180.465C248.845 182.539 250.39 192.987 262.153 193.002C271.788 193.014 274.401 184.407 274.504 180.101L276.998 180.079C277.55 180.074 277.994 179.622 277.989 179.07L277.962 176.039C277.957 175.487 277.505 175.043 276.953 175.048L274.459 175.07C268.183 168.712 254.701 169.307 249.952 175.287C244.713 174.079 240.248 174.851 238.67 175.387ZM226.672 191.284C221.28 191.284 218.564 187.034 217.874 185.137C217.081 183.55 216.454 179.415 218.333 176.13C220.722 171.954 231.951 170.789 235.885 176.689C239.818 182.589 235.885 191.284 226.672 191.284ZM271.202 185.137C270.512 187.034 267.797 191.284 262.404 191.284C253.192 191.284 249.259 182.589 253.192 176.689C257.125 170.789 268.355 171.954 270.744 176.13C272.623 179.415 271.996 183.55 271.202 185.137Z" fill="#111111"/>
<path d="M168.324 409.064C168.324 408.509 168.774 408.06 169.329 408.06H323.721C324.692 408.06 325.479 408.847 325.479 409.818C325.479 412.73 323.118 415.092 320.205 415.092H174.352C171.023 415.092 168.324 412.393 168.324 409.064Z" fill="#B4B4B4"/>
<rect x="168.324" y="305.524" width="157.155" height="105.147" rx="2.94666" fill="url(#paint6_linear_11_45)"/>
<circle cx="246.901" cy="358.098" r="11.1765" fill="white"/>
<path fill-rule="evenodd" clip-rule="evenodd" d="M135.238 170.252C135.438 166.844 136.117 163.99 136.684 162.404C137.796 165.186 138.346 167.857 138.532 170.292C140.968 170.478 143.639 171.028 146.42 172.141C144.834 172.708 141.981 173.387 138.572 173.586C138.382 177.205 137.452 180.017 136.684 181.457C135.749 178.84 135.322 176.149 135.211 173.613C132.676 173.502 129.984 173.076 127.367 172.141C128.808 171.373 131.619 170.442 135.238 170.252Z" fill="url(#paint7_linear_11_45)"/>
<path fill-rule="evenodd" clip-rule="evenodd" d="M108.351 147.826C108.483 145.557 108.936 143.657 109.313 142.602C110.053 144.453 110.419 146.231 110.543 147.852C112.164 147.976 113.942 148.342 115.794 149.083C114.738 149.46 112.839 149.912 110.57 150.045C110.443 152.454 109.824 154.325 109.313 155.284C108.691 153.542 108.407 151.75 108.333 150.063C106.645 149.989 104.853 149.705 103.111 149.083C104.07 148.572 105.942 147.952 108.351 147.826Z" fill="url(#paint8_linear_11_45)"/>
<path fill-rule="evenodd" clip-rule="evenodd" d="M65.0274 131.848C65.2267 128.439 65.9063 125.586 66.4727 124C67.5855 126.782 68.1355 129.452 68.3215 131.888C70.7571 132.074 73.4278 132.624 76.2097 133.737C74.6237 134.303 71.7702 134.983 68.3616 135.182C68.1715 138.801 67.2408 141.613 66.4727 143.053C65.5382 140.436 65.1117 137.744 65.0004 135.209C62.4652 135.098 59.7735 134.671 57.1566 133.737C58.5968 132.969 61.4085 132.038 65.0274 131.848Z" fill="url(#paint9_linear_11_45)"/>
<path fill-rule="evenodd" clip-rule="evenodd" d="M68.7364 210.189C69.0296 205.174 70.0295 200.976 70.8628 198.642C72.5 202.735 73.3092 206.664 73.5828 210.248C77.1661 210.521 81.0954 211.331 85.1881 212.968C82.8547 213.801 78.6567 214.801 73.6417 215.094C73.362 220.418 71.9928 224.555 70.8628 226.674C69.4878 222.824 68.8604 218.864 68.6967 215.134C64.9668 214.97 61.0066 214.343 57.1566 212.968C59.2754 211.838 63.4122 210.468 68.7364 210.189Z" fill="url(#paint10_linear_11_45)"/>
<circle cx="99.2053" cy="180.534" r="1.8414" fill="#2F235A"/>
<circle cx="141.463" cy="127.737" r="1.8414" fill="#FE9076"/>
<circle cx="48.8435" cy="173.224" r="1.8414" fill="#FFA400"/>
<circle cx="131.37" cy="208.934" r="1.8414" fill="#23BB86"/>
<path d="M136.951 120.052C132.788 114.334 121.061 102.121 107.457 99.0115" stroke="#FE9076" stroke-width="1.60277" stroke-linecap="round"/>
<path d="M41.0741 168.288C34.921 164.801 19.1963 158.522 5.52302 161.309" stroke="#FFA400" stroke-width="1.60277" stroke-linecap="round"/>
<path d="M125.05 214.283C121.897 217.065 114.311 224.967 109.192 234.314" stroke="#23BB86" stroke-width="1.60277" stroke-linecap="round"/>
<path fill-rule="evenodd" clip-rule="evenodd" d="M352.588 170.252C352.389 166.844 351.709 163.99 351.143 162.404C350.03 165.186 349.48 167.857 349.294 170.292C346.858 170.478 344.187 171.028 341.406 172.141C342.992 172.708 345.845 173.387 349.254 173.586C349.444 177.205 350.374 180.017 351.143 181.457C352.077 178.84 352.504 176.149 352.615 173.613C355.15 173.502 357.842 173.076 360.459 172.141C359.019 171.373 356.207 170.442 352.588 170.252Z" fill="url(#paint11_linear_11_45)"/>
<path fill-rule="evenodd" clip-rule="evenodd" d="M379.476 147.826C379.343 145.557 378.891 143.657 378.514 142.602C377.773 144.453 377.407 146.231 377.283 147.852C375.662 147.976 373.884 148.342 372.032 149.083C373.088 149.46 374.987 149.912 377.256 150.045C377.383 152.454 378.002 154.325 378.514 155.284C379.136 153.542 379.419 151.75 379.494 150.063C381.181 149.989 382.973 149.705 384.715 149.083C383.756 148.572 381.884 147.952 379.476 147.826Z" fill="url(#paint12_linear_11_45)"/>
<path fill-rule="evenodd" clip-rule="evenodd" d="M422.799 131.848C422.599 128.439 421.92 125.586 421.353 124C420.241 126.782 419.691 129.452 419.505 131.888C417.069 132.074 414.398 132.624 411.616 133.737C413.202 134.303 416.056 134.983 419.465 135.182C419.655 138.801 420.585 141.613 421.353 143.053C422.288 140.436 422.714 137.744 422.826 135.209C425.361 135.098 428.053 134.671 430.669 133.737C429.229 132.969 426.418 132.038 422.799 131.848Z" fill="url(#paint13_linear_11_45)"/>
<path fill-rule="evenodd" clip-rule="evenodd" d="M419.09 210.189C418.796 205.174 417.797 200.976 416.963 198.642C415.326 202.735 414.517 206.664 414.243 210.248C410.66 210.521 406.731 211.331 402.638 212.968C404.971 213.801 409.169 214.801 414.184 215.094C414.464 220.418 415.833 224.555 416.963 226.674C418.338 222.824 418.966 218.864 419.129 215.134C422.859 214.97 426.819 214.343 430.669 212.968C428.551 211.838 424.414 210.468 419.09 210.189Z" fill="url(#paint14_linear_11_45)"/>
<circle cx="1.8414" cy="1.8414" r="1.8414" transform="matrix(-1 0 0 1 390.462 178.693)" fill="#2F235A"/>
<circle cx="1.8414" cy="1.8414" r="1.8414" transform="matrix(-1 0 0 1 348.204 125.895)" fill="#FE9076"/>
<circle cx="1.8414" cy="1.8414" r="1.8414" transform="matrix(-1 0 0 1 440.824 171.382)" fill="#FFA400"/>
<circle cx="1.8414" cy="1.8414" r="1.8414" transform="matrix(-1 0 0 1 358.298 207.093)" fill="#23BB86"/>
<path d="M350.875 120.052C355.038 114.334 366.765 102.121 380.369 99.0115" stroke="#FE9076" stroke-width="1.60277" stroke-linecap="round"/>
<path d="M446.752 168.288C452.905 164.801 468.63 158.522 482.303 161.309" stroke="#FFA400" stroke-width="1.60277" stroke-linecap="round"/>
<path d="M362.776 214.283C365.929 217.065 373.515 224.967 378.634 234.314" stroke="#23BB86" stroke-width="1.60277" stroke-linecap="round"/>
<path d="M273.949 56.5506C271.861 53.3253 267.635 55.0823 267.635 58.5958C267.635 61.2342 273.429 65.3613 273.949 65.8979C274.473 65.3613 279.979 61.2342 279.979 58.5958C279.979 55.109 276.041 53.3253 273.949 56.5506Z" fill="#FFBCBC"/>
<circle cx="273.807" cy="60.3757" r="13.7999" stroke="#F7F7F7" stroke-width="0.649684"/>
<path d="M224.426 37.3174C222.578 34.4628 218.838 36.0179 218.838 39.1275C218.838 41.4626 223.966 45.1153 224.426 45.5902C224.89 45.1153 229.763 41.4626 229.763 39.1275C229.763 36.0415 226.278 34.4628 224.426 37.3174Z" fill="#FFBCBC"/>
<circle cx="224.3" cy="40.7028" r="12.2135" stroke="#F7F7F7" stroke-width="0.574998"/>
<path d="M257.109 16.3424C255.845 14.39 253.286 15.4536 253.286 17.5803C253.286 19.1774 256.794 21.6755 257.109 22.0004C257.426 21.6755 260.758 19.1774 260.758 17.5803C260.758 15.4697 258.375 14.39 257.109 16.3424Z" fill="#FFBCBC"/>
<circle cx="257.022" cy="18.6577" r="8.35318" stroke="#F7F7F7" stroke-width="0.393259"/>
<path d="M199.379 5.47825C198.345 3.88077 196.252 4.75102 196.252 6.49121C196.252 7.79795 199.121 9.84206 199.379 10.1078C199.638 9.84206 202.365 7.79795 202.365 6.49121C202.365 4.76422 200.415 3.88077 199.379 5.47825Z" fill="#FFBCBC"/>
<circle cx="199.308" cy="7.37273" r="6.83488" stroke="#F7F7F7" stroke-width="0.321779"/>
<path d="M194.292 80.3643C192.034 76.8765 187.464 78.7765 187.464 82.5759C187.464 85.4289 193.729 89.8918 194.292 90.4721C194.859 89.8918 200.813 85.4289 200.813 82.5759C200.813 78.8053 196.554 76.8765 194.292 80.3643Z" fill="#FFBCBC"/>
<circle cx="194.138" cy="84.5004" r="14.9226" stroke="#F7F7F7" stroke-width="0.702541"/>
</g>
<defs>
<filter id="filter0_d_11_45" x="0.721497" y="0.376953" width="516.921" height="422.715" filterUnits="userSpaceOnUse" color-interpolation-filters="sRGB">
<feFlood flood-opacity="0" result="BackgroundImageFix"/>
<feColorMatrix in="SourceAlpha" type="matrix" values="0 0 0 0 0 0 0 0 0 0 0 0 0 0 0 0 0 0 127 0" result="hardAlpha"/>
<feOffset dy="4"/>
<feGaussianBlur stdDeviation="2"/>
<feComposite in2="hardAlpha" operator="out"/>
<feColorMatrix type="matrix" values="0 0 0 0 0 0 0 0 0 0 0 0 0 0 0 0 0 0 0.25 0"/>
<feBlend mode="normal" in2="BackgroundImageFix" result="effect1_dropShadow_11_45"/>
<feBlend mode="normal" in="SourceGraphic" in2="effect1_dropShadow_11_45" result="shape"/>
</filter>
<filter id="filter1_d_11_45" x="158.729" y="78.0618" width="173.661" height="125.955" filterUnits="userSpaceOnUse" color-interpolation-filters="sRGB">
<feFlood flood-opacity="0" result="BackgroundImageFix"/>
<feColorMatrix in="SourceAlpha" type="matrix" values="0 0 0 0 0 0 0 0 0 0 0 0 0 0 0 0 0 0 127 0" result="hardAlpha"/>
<feOffset dy="4"/>
<feGaussianBlur stdDeviation="17"/>
<feColorMatrix type="matrix" values="0 0 0 0 0.0386285 0 0 0 0 0.0648437 0 0 0 0 0.104167 0 0 0 0.13 0"/>
<feBlend mode="normal" in2="BackgroundImageFix" result="effect1_dropShadow_11_45"/>
<feBlend mode="normal" in="SourceGraphic" in2="effect1_dropShadow_11_45" result="shape"/>
</filter>
<filter id="filter2_d_11_45" x="261.836" y="142.751" width="76.1891" height="88.7754" filterUnits="userSpaceOnUse" color-interpolation-filters="sRGB">
<feFlood flood-opacity="0" result="BackgroundImageFix"/>
<feColorMatrix in="SourceAlpha" type="matrix" values="0 0 0 0 0 0 0 0 0 0 0 0 0 0 0 0 0 0 127 0" result="hardAlpha"/>
<feOffset dy="4"/>
<feGaussianBlur stdDeviation="17"/>
<feColorMatrix type="matrix" values="0 0 0 0 0.0386285 0 0 0 0 0.0648437 0 0 0 0 0.104167 0 0 0 0.13 0"/>
<feBlend mode="normal" in2="BackgroundImageFix" result="effect1_dropShadow_11_45"/>
<feBlend mode="normal" in="SourceGraphic" in2="effect1_dropShadow_11_45" result="shape"/>
</filter>
<filter id="filter3_d_11_45" x="247.005" y="130.034" width="89.5669" height="111.363" filterUnits="userSpaceOnUse" color-interpolation-filters="sRGB">
<feFlood flood-opacity="0" result="BackgroundImageFix"/>
<feColorMatrix in="SourceAlpha" type="matrix" values="0 0 0 0 0 0 0 0 0 0 0 0 0 0 0 0 0 0 127 0" result="hardAlpha"/>
<feOffset dy="4"/>
<feGaussianBlur stdDeviation="17"/>
<feColorMatrix type="matrix" values="0 0 0 0 0.0386285 0 0 0 0 0.0648437 0 0 0 0 0.104167 0 0 0 0.13 0"/>
<feBlend mode="normal" in2="BackgroundImageFix" result="effect1_dropShadow_11_45"/>
<feBlend mode="normal" in="SourceGraphic" in2="effect1_dropShadow_11_45" result="shape"/>
</filter>
<filter id="filter4_d_11_45" x="151.203" y="142.751" width="76.1891" height="88.7754" filterUnits="userSpaceOnUse" color-interpolation-filters="sRGB">
<feFlood flood-opacity="0" result="BackgroundImageFix"/>
<feColorMatrix in="SourceAlpha" type="matrix" values="0 0 0 0 0 0 0 0 0 0 0 0 0 0 0 0 0 0 127 0" result="hardAlpha"/>
<feOffset dy="4"/>
<feGaussianBlur stdDeviation="17"/>
<feColorMatrix type="matrix" values="0 0 0 0 0.0386285 0 0 0 0 0.0648437 0 0 0 0 0.104167 0 0 0 0.13 0"/>
<feBlend mode="normal" in2="BackgroundImageFix" result="effect1_dropShadow_11_45"/>
<feBlend mode="normal" in="SourceGraphic" in2="effect1_dropShadow_11_45" result="shape"/>
</filter>
<filter id="filter5_d_11_45" x="152.504" y="130.034" width="89.5669" height="111.363" filterUnits="userSpaceOnUse" color-interpolation-filters="sRGB">
<feFlood flood-opacity="0" result="BackgroundImageFix"/>
<feColorMatrix in="SourceAlpha" type="matrix" values="0 0 0 0 0 0 0 0 0 0 0 0 0 0 0 0 0 0 127 0" result="hardAlpha"/>
<feOffset dy="4"/>
<feGaussianBlur stdDeviation="17"/>
<feColorMatrix type="matrix" values="0 0 0 0 0.0386285 0 0 0 0 0.0648437 0 0 0 0 0.104167 0 0 0 0.13 0"/>
<feBlend mode="normal" in2="BackgroundImageFix" result="effect1_dropShadow_11_45"/>
<feBlend mode="normal" in="SourceGraphic" in2="effect1_dropShadow_11_45" result="shape"/>
</filter>
<linearGradient id="paint0_linear_11_45" x1="395.304" y1="158.698" x2="397.951" y2="334.566" gradientUnits="userSpaceOnUse">
<stop stop-color="#FFEFE0"/>
<stop offset="1" stop-color="#FFBE99"/>
</linearGradient>
<linearGradient id="paint1_linear_11_45" x1="246.798" y1="200.585" x2="234.398" y2="448.923" gradientUnits="userSpaceOnUse">
<stop stop-color="#FF9F81"/>
<stop offset="1" stop-color="#F53838"/>
</linearGradient>
<linearGradient id="paint2_linear_11_45" x1="231.733" y1="287.86" x2="113.061" y2="344.735" gradientUnits="userSpaceOnUse">
<stop offset="0.0677966" stop-color="#FFEFE0"/>
<stop offset="1" stop-color="#FFBE99"/>
</linearGradient>
<linearGradient id="paint3_linear_11_45" x1="242.727" y1="173.352" x2="244.807" y2="239.738" gradientUnits="userSpaceOnUse">
<stop stop-color="#FFEFE0"/>
<stop offset="1" stop-color="#FFBE99"/>
</linearGradient>
<linearGradient id="paint4_linear_11_45" x1="242.727" y1="173.352" x2="239.813" y2="248.983" gradientUnits="userSpaceOnUse">
<stop stop-color="#FFEFE0"/>
<stop offset="1" stop-color="#FFBE99"/>
</linearGradient>
<linearGradient id="paint5_linear_11_45" x1="246.184" y1="137.96" x2="246.184" y2="217.679" gradientUnits="userSpaceOnUse">
<stop stop-color="#FFEFE0"/>
<stop offset="1" stop-color="#FFBE99"/>
</linearGradient>
<linearGradient id="paint6_linear_11_45" x1="279.352" y1="226.611" x2="221.247" y2="435.106" gradientUnits="userSpaceOnUse">
<stop offset="0.0171777" stop-color="white"/>
<stop offset="1" stop-color="#D7D7D7"/>
</linearGradient>
<linearGradient id="paint7_linear_11_45" x1="136.894" y1="164.432" x2="136.894" y2="182.322" gradientUnits="userSpaceOnUse">
<stop stop-color="#FFE89E"/>
<stop offset="1" stop-color="#FFBF1A"/>
</linearGradient>
<linearGradient id="paint8_linear_11_45" x1="109.453" y1="143.952" x2="109.453" y2="155.859" gradientUnits="userSpaceOnUse">
<stop stop-color="#FFE89E"/>
<stop offset="1" stop-color="#FFBF1A"/>
</linearGradient>
<linearGradient id="paint9_linear_11_45" x1="66.6831" y1="126.028" x2="66.6831" y2="143.917" gradientUnits="userSpaceOnUse">
<stop stop-color="#FFE89E"/>
<stop offset="1" stop-color="#FFBF1A"/>
</linearGradient>
<linearGradient id="paint10_linear_11_45" x1="71.1724" y1="201.626" x2="71.1724" y2="227.946" gradientUnits="userSpaceOnUse">
<stop stop-color="#FFE89E"/>
<stop offset="1" stop-color="#FFBF1A"/>
</linearGradient>
<linearGradient id="paint11_linear_11_45" x1="350.932" y1="164.432" x2="350.932" y2="182.322" gradientUnits="userSpaceOnUse">
<stop stop-color="#FFE89E"/>
<stop offset="1" stop-color="#FFBF1A"/>
</linearGradient>
<linearGradient id="paint12_linear_11_45" x1="378.373" y1="143.952" x2="378.373" y2="155.859" gradientUnits="userSpaceOnUse">
<stop stop-color="#FFE89E"/>
<stop offset="1" stop-color="#FFBF1A"/>
</linearGradient>
<linearGradient id="paint13_linear_11_45" x1="421.143" y1="126.028" x2="421.143" y2="143.917" gradientUnits="userSpaceOnUse">
<stop stop-color="#FFE89E"/>
<stop offset="1" stop-color="#FFBF1A"/>
</linearGradient>
<linearGradient id="paint14_linear_11_45" x1="416.654" y1="201.626" x2="416.654" y2="227.946" gradientUnits="userSpaceOnUse">
<stop stop-color="#FFE89E"/>
<stop offset="1" stop-color="#FFBF1A"/>
</linearGradient>
</defs>
</svg>
