<svg width="55" height="56" viewBox="0 0 55 56" fill="none" xmlns="http://www.w3.org/2000/svg">
<rect y="0.0493164" width="55" height="55" rx="27.5" fill="#FFECEC"/>
<path fill-rule="evenodd" clip-rule="evenodd" d="M28 26.3493C28.9548 26.3493 29.8705 25.97 30.5456 25.2949C31.2207 24.6197 31.6 23.7041 31.6 22.7493C31.6 21.7945 31.2207 20.8788 30.5456 20.2037C29.8705 19.5286 28.9548 19.1493 28 19.1493C27.0452 19.1493 26.1296 19.5286 25.4544 20.2037C24.7793 20.8788 24.4 21.7945 24.4 22.7493C24.4 23.7041 24.7793 24.6197 25.4544 25.2949C26.1296 25.97 27.0452 26.3493 28 26.3493ZM22.8987 37.1493C21.0769 37.1493 19.5422 35.6179 20.2394 33.9347V33.9347C20.6616 32.9156 21.2803 31.9896 22.0603 31.2096C22.8403 30.4296 23.7663 29.8108 24.7855 29.3887C25.8046 28.9666 26.8969 28.7493 28 28.7493C29.1031 28.7493 30.1954 28.9666 31.2145 29.3887C32.2337 29.8108 33.1597 30.4296 33.9397 31.2096C34.7197 31.9896 35.3385 32.9156 35.7606 33.9347V33.9347C36.4578 35.6179 34.9232 37.1493 33.1014 37.1493H22.8987Z" fill="#F53838"/>
</svg>
